PathFileType	4	(X/Y/Z)	54_1_11_p1_0-331.trc
DataRate	CameraRate	NumFrames	NumMarkers	Units	OrigDataRate	OrigDataStartFrame	OrigNumFrames
59.0	59.0	7	27	m	59.0	0	332
Frame#	Time	RHip			RKnee			RAnkle			RBigToe			RSmallToe			RHeel			LHip			LKnee			LAnkle			LBigToe			LSmallToe			LHeel			Neck			Head			Nose			RShoulder			RElbow			RWrist			RThumb			RIndex			RPinky			LShoulder			LElbow			LWrist			LThumb			LIndex			LPinky			
		X1	Y1	Z1	X2	Y2	Z2	X3	Y3	Z3	X4	Y4	Z4	X5	Y5	Z5	X6	Y6	Z6	X7	Y7	Z7	X8	Y8	Z8	X9	Y9	Z9	X10	Y10	Z10	X11	Y11	Z11	X12	Y12	Z12	X13	Y13	Z13	X14	Y14	Z14	X15	Y15	Z15	X16	Y16	Z16	X17	Y17	Z17	X18	Y18	Z18	X19	Y19	Z19	X20	Y20	Z20	X21	Y21	Z21	X22	Y22	Z22	X23	Y23	Z23	X24	Y24	Z24	X25	Y25	Z25	X26	Y26	Z26	X27	Y27	Z27	
0	0.0	0.2959835517732767	0.5096772508067244	0.9721268867172295	0.2860169051872596	0.557858200546157	1.4655776198256356	0.25690726077895326	0.5640157581848313	1.9302816565038374	0.21752096979805136	0.36041028401725267	1.9429163761105472	0.2776300177367675	0.4032834976267525	1.9714741286424384	0.23902599006441286	0.6329105187417412	2.000198064762322	0.06484841425934694	0.533098827282326	0.9840269533541449	0.07122615944709162	0.5767669872142741	1.467820697674909	0.05920443204418121	0.5587033855786729	1.9008678619699728	0.06398293240008268	0.3825977280793608	1.9450278135886776	0.011592226552530244	0.43894280628234295	1.968015697044544	0.06570514976342884	0.5877079865180012	1.9456920428415758	0.2032216384166935	0.5244737563763193	0.41897553392639963	0.20319608967375355	0.47470465255215016	0.15928439635293642	0.20469109534152288	0.42181681864338344	0.30522191039615704	0.349988812997286	0.49573550125396765	0.497393832573703	0.3793339584583169	0.4350685853889398	0.7764700133374726	0.2297578547357313	0.35518457469863446	0.96160659998343	0.1553535779599241	0.34956070278978707	1.0682204091370373	0.1474538374104169	0.3767448761854372	1.0873348125580702	0.15641400948558207	0.3794839517916188	1.084335877129437	0.029688835037416535	0.5129561938334265	0.47580613832699364	-0.021608154452643656	0.5002739093245243	0.7485154320372096	0.07303481867188027	0.3648679191212306	0.9332464149201273	0.19011886078594162	0.3478623999678172	1.006812353296372	0.1924159866480174	0.34592681212503057	1.0452779037481281	0.1493069940939596	0.3359825254082581	1.0861169062151328
1	0.01694915254237288	0.2986821502724351	0.49434004824126493	0.9626942708545076	0.2898753389743859	0.5599139427603507	1.466482508429508	0.25377599680735413	0.5525909359725939	1.927865074568766	0.2176243653744657	0.36024289972145473	1.942976901806265	0.27775393234245194	0.40284498810559355	1.9712028375060486	0.23974521165679732	0.6327426457946312	2.000055411166421	0.06481575537063783	0.5328943995909986	0.9802038677531285	0.0721963355183998	0.5761940884918131	1.4626800891619545	0.05883020957224196	0.5604131989671033	1.8978635435737394	0.06298793183218827	0.38297520022693854	1.9494130942205983	0.010395554256805389	0.4391431595211359	1.9725025386815787	0.06223928724868896	0.5853595723714943	1.9493591019731678	0.2032521476749494	0.5243667898470296	0.4189621824310737	0.1998015023124863	0.4651135588701817	0.1587735822021316	0.20467987076177116	0.42214583994395544	0.30234904811180474	0.34999209033708367	0.49558240358267647	0.4973344538964803	0.3792442999432378	0.43519328588264383	0.7765063436398428	0.23007753945622353	0.3539883006846368	0.9653225279744582	0.1476151761396937	0.351621291479259	1.065603158756782	0.14653073790037863	0.37718470968411966	1.0906289472808468	0.15519851231411927	0.3802741804662458	1.0876174535797218	0.029684685938716746	0.5130221580430786	0.47569852473055696	-0.02175720530213118	0.5008270811461742	0.7484381733085991	0.07747050661331595	0.3677508601670127	0.9380751990161647	0.19032393568206896	0.34860862739249626	1.0109588034377008	0.1913594271488383	0.34621289269614586	1.0458236145431588	0.14567845593008272	0.34810920556175917	1.0907960643786025
2	0.03389830508474576	0.2982323565978765	0.49408786243514763	0.9662034641967164	0.2900188421993715	0.5600455834131282	1.4665939113046196	0.25706589845818456	0.5630620852275503	1.9298818816241523	0.21756926273462232	0.36016125038032787	1.9429980765932642	0.2787958860610194	0.40243555941189363	1.9663802939897874	0.23988381690924906	0.6330255641996307	2.0002834424485507	0.06445221124464198	0.5316918621795642	0.9755135790623511	0.07684658553730825	0.5622216917617603	1.455839796577341	0.058863930275401474	0.5604671009956278	1.8977951742611054	0.062379642026157735	0.3816663350506376	1.9435063035631388	0.010445765810666113	0.4390379255284807	1.9723672248948325	0.06029401610381355	0.5844612258487027	1.9487811012146978	0.2032128188804918	0.524411871051842	0.41891509657280057	0.1997896371191951	0.465098044794016	0.15877816674868608	0.2016264953776064	0.41288087566191767	0.3015089743169524	0.3499948607796823	0.4955119535513766	0.49739552033606205	0.3792662648870694	0.43539005197487707	0.7767028166754656	0.22947186270683897	0.35442957051626267	0.9688294269068914	0.14827300057336978	0.3510385902515684	1.0740398188671278	0.14640726157172898	0.37724324033538087	1.090752626263101	0.15526894056943252	0.38026587869146794	1.0877250151270732	0.029675773209412445	0.5130305265083316	0.47573965831697346	-0.021531440235056834	0.5007581175689847	0.7485628636836397	0.08148305321384096	0.35598738992865797	0.9343442926977218	0.1900613251821875	0.3484641145087578	1.0111472209915042	0.1917613659310552	0.3464508763109336	1.0501057727887042	0.14575655121235695	0.34815045911013287	1.0910106782045375
3	0.05084745762711865	0.2982940451101687	0.4941547801871407	0.9661692535904889	0.2901728660565717	0.5602424331858253	1.4667260274469962	0.2577073959630261	0.5658872151602286	1.931578832484055	0.21758573567885972	0.36010189542279714	1.9430872116580862	0.2824830908803255	0.3874163528059982	1.9559240605202601	0.2350932530885701	0.6201973777925236	1.9917032611371936	0.06413280500755114	0.5317198136966984	0.9791591809129827	0.07225233229202674	0.5762407307289339	1.462675552110633	0.05879312627156158	0.5603586331962979	1.897657636560541	0.06692345549177206	0.36804876160114397	1.9340657802703938	0.01044975491982406	0.43904559598895027	1.9723989203246524	0.06161708257244256	0.5841543407061865	1.9431482706683942	0.2031840338913648	0.5242821463311943	0.4188942591274897	0.20316633230289532	0.4748130055081209	0.1591709194590713	0.19851592552508998	0.42505521130616064	0.30264310390086685	0.3499642588495415	0.49541831035845374	0.49736203716988525	0.3792309197164507	0.43563798921088265	0.7767881341042846	0.22999681756654283	0.35414779936678814	0.9654421589023625	0.14736487452853106	0.35165490736151667	1.0657382191333002	0.14272020403427255	0.38900709300665604	1.0925118353482646	0.1590839208171521	0.39208639371728565	1.0920509253142148	0.02970087567371733	0.5130161144774874	0.4757679768420917	-0.021376826106493666	0.5012776724260548	0.7485468273419745	0.07719160415694212	0.36718526125969186	0.9338705375452526	0.19001396524830932	0.34753684155374404	1.0141101878108087	0.19124890610462067	0.3450296142397628	1.048935765570125	0.14871816610121072	0.35682955535435334	1.090821046611623
4	0.06779661016949153	0.2977777425713563	0.4933773251504539	0.9617354250604143	0.29002956311957256	0.5599151366928042	1.4664071324085677	0.2577372010176626	0.5661248996593035	1.931700462301508	0.21755978842756488	0.3600723999269685	1.9430655448094405	0.28243842505051014	0.38738331731789805	1.9560141550261403	0.23969469693114032	0.6328284979944439	2.0001858507771226	0.06720907187718048	0.5421160916643268	0.9781331622326398	0.0762258830513355	0.561085042884108	1.4498966849440902	0.058837594624050193	0.5605019854278499	1.8978302131799814	0.06381258393152969	0.35668505430848574	1.9262843670452698	0.010423554078062832	0.43889886712322823	1.9723615331145905	0.06444760224453891	0.5876218732918302	1.950828055568387	0.20320126676352843	0.5243970107139067	0.4189117869768989	0.1997721471472307	0.4650889890294786	0.15874987807128585	0.20465436107125726	0.42235350923229964	0.3023701215431168	0.3499924535286681	0.49544818289910353	0.497367011699147	0.37920006318163607	0.4357642909643182	0.7766730214298578	0.2301039498625971	0.35444860077608553	0.9654975149033886	0.14756096239252783	0.35042604378468606	1.0691357102598529	0.13904589629511588	0.3896035660486239	1.0929201194924059	0.15918715254975072	0.3923220242478191	1.0921635527956053	0.02972245767075413	0.5129747231199643	0.47584408014830604	-0.02147231558552177	0.5010359432731049	0.7485652644221902	0.0803284038472346	0.3772029402874389	0.9368704535509099	0.19020822441573054	0.3475711602229115	1.014092732173097	0.19143724303369017	0.345239194004973	1.0490596313345935	0.1485965399777959	0.356889180389861	1.0909021177708305
5	0.0847457627118644	0.29778211289533063	0.49338358582746866	0.9616688261679325	0.28994125314707736	0.5596390501626937	1.466162999308258	0.25680413515940315	0.564949850387967	1.926198332283238	0.21757506907126142	0.36010626377738153	1.9430345669925997	0.28250155035783386	0.38748331645066925	1.9559922100810816	0.2393265498044494	0.6320826627052558	1.9997212775966933	0.06684522583759007	0.5411296061071884	0.9736094656241123	0.0759830146817959	0.5625938981162684	1.446585056744895	0.05887999807548798	0.5604845108587364	1.8978208971985386	0.06691122077436028	0.36792360940855146	1.9340466412983288	0.010446275302796381	0.43896665448207206	1.972443629080857	0.06440907335229433	0.5873935533357295	1.950815307498061	0.20299141917666377	0.5238255837293104	0.41542823182774224	0.1997490684853173	0.46501463475731	0.15873610394940582	0.2016549321920229	0.4129637901110408	0.30154853033698326	0.3461466397183095	0.493632552022521	0.49709863244900726	0.3791421462779386	0.43565946484134166	0.7765824455883165	0.22981521565827534	0.35549333167710706	0.9617339070797203	0.14315599553132152	0.3517655925045354	1.066097873926821	0.138240940737959	0.3902549208926204	1.095837291037861	0.16272693880701072	0.3915880233090168	1.094893334603224	0.03248417689004212	0.5230775171296492	0.47728662870286903	-0.02118786143205361	0.5005340027195816	0.7519957077501588	0.0844070725334449	0.3655250085614935	0.9329875082486175	0.18598434761489505	0.3443763183932532	1.0122718589175665	0.19107622767027033	0.34474426672429603	1.0487014958031662	0.14885039015359125	0.35705137726491276	1.090681926577218
6	0.1016949152542373	0.29702931992253095	0.4923845651715342	0.9572708090031454	0.2900277243352579	0.5599196290757316	1.4664168169532226	0.2582255239777692	0.5646359536247494	1.9356918959739524	0.2136367983895494	0.3494610118168935	1.9358477630140907	0.28242845408734907	0.3872041419213182	1.9560113857644434	0.24171641426243637	0.635943900765138	2.007631467601363	0.0634936201397174	0.5302034065231184	0.9702273286598098	0.0770144695581012	0.5622385997280741	1.4556595882394763	0.058844958944626546	0.5604237396691618	1.8978761347751893	0.06755400463706658	0.3688514062761706	1.939550476907901	0.010398406667821929	0.4388645120735702	1.9723426236235162	0.06431808567522504	0.5870446228773456	1.9509429611745248	0.20308914715856533	0.5240264995714025	0.41548218402026965	0.19973493363623868	0.4650912638214905	0.15873537645084934	0.19838580390931282	0.4249055311606565	0.3026545372336979	0.3461735849741951	0.4938076376751581	0.49715218197948524	0.38021589049808063	0.45936094977563524	0.7827076986866762	0.233290184798155	0.3659070315097488	0.9650867408785959	0.14686810288105967	0.3638018651446274	1.0679729807451785	0.13458693406838426	0.4020368710324056	1.0977762995939573	0.159176593723232	0.40323989356004336	1.0961005714813041	0.03252210066287106	0.5229752527013661	0.47735652406290424	-0.016859883121648125	0.5016105852899841	0.7559783617674796	0.08841573099992546	0.3675761809737206	0.9335101611185523	0.1858525065159583	0.3446431651676532	1.012353240038847	0.19119418651857212	0.3441622770518132	1.0517976908225402	0.14888886795087763	0.35873548103083314	1.0875202198766518
